<mxfile host="app.diagrams.net" modified="2023-08-21T01:06:43.401Z" agent="Mozilla/5.0 (Windows NT 10.0; Win64; x64) AppleWebKit/537.36 (KHTML, like Gecko) Chrome/109.0.0.0 Safari/537.36" version="21.6.8" etag="iFhYV1FmUxHE6WFdw21I" type="github">
  <diagram name="PÃ¡gina-1" id="KtsupeZboV7eOfG2LRSB">
    <mxGraphModel>
      <root>
        <mxCell id="0" />
        <mxCell id="1" parent="0" />
      </root>
    </mxGraphModel>
  </diagram>
</mxfile>
